<?xml version="1.0" encoding="UTF-8" standalone="no"?>
<svg
   xmlns:dc="http://purl.org/dc/elements/1.1/"
   xmlns:cc="http://creativecommons.org/ns#"
   xmlns:rdf="http://www.w3.org/1999/02/22-rdf-syntax-ns#"
   xmlns:svg="http://www.w3.org/2000/svg"
   xmlns="http://www.w3.org/2000/svg"
   xmlns:sodipodi="http://sodipodi.sourceforge.net/DTD/sodipodi-0.dtd"
   xmlns:inkscape="http://www.inkscape.org/namespaces/inkscape"
   version="1.1"
   id="Layer_1"
   x="0px"
   y="0px"
   viewBox="0 0 750 750"
   style="enable-background:new 0 0 750 750;"
   xml:space="preserve"
   sodipodi:docname="birthday-boy.svg"
   inkscape:version="1.0.1 (c497b03c, 2020-09-10)"><metadata
   id="metadata31"><rdf:RDF><cc:Work
       rdf:about=""><dc:format>image/svg+xml</dc:format><dc:type
         rdf:resource="http://purl.org/dc/dcmitype/StillImage" /></cc:Work></rdf:RDF></metadata><defs
   id="defs29">
	
	

		
	<filter
   style="color-interpolation-filters:sRGB;"
   inkscape:label="Drop Shadow"
   id="filter82"><feFlood
     flood-opacity="0.498039"
     flood-color="rgb(252,255,255)"
     result="flood"
     id="feFlood72" /><feComposite
     in="flood"
     in2="SourceGraphic"
     operator="in"
     result="composite1"
     id="feComposite74" /><feGaussianBlur
     in="composite1"
     stdDeviation="3"
     result="blur"
     id="feGaussianBlur76" /><feOffset
     dx="6"
     dy="6"
     result="offset"
     id="feOffset78" /><feComposite
     in="SourceGraphic"
     in2="offset"
     operator="over"
     result="composite2"
     id="feComposite80" /></filter></defs><sodipodi:namedview
   pagecolor="#ffffff"
   bordercolor="#666666"
   borderopacity="1"
   objecttolerance="10"
   gridtolerance="10"
   guidetolerance="10"
   inkscape:pageopacity="0"
   inkscape:pageshadow="2"
   inkscape:window-width="1792"
   inkscape:window-height="1006"
   id="namedview27"
   showgrid="false"
   inkscape:zoom="0.824"
   inkscape:cx="375"
   inkscape:cy="375"
   inkscape:window-x="0"
   inkscape:window-y="25"
   inkscape:window-maximized="1"
   inkscape:current-layer="g20"
   inkscape:document-rotation="0" />
<style
   type="text/css"
   id="style10">
	.st0{fill:#E12328;stroke:#ED1C24;stroke-miterlimit:10;}
</style>
<g
   id="g20">
			<path
   d="m 544.2,257 c -1.2,0 -2.3,-0.1 -3.5,-0.1 3.3,7.9 6,16.2 8.1,24.7 -54,-16.2 -112.6,-25.1 -173.8,-25.1 -60.9,0 -119.2,8.8 -173,24.8 2.1,-8.4 4.8,-16.6 8,-24.5 -1.4,0 -2.8,0.1 -4.2,0.1 -63.1,0 -114.3,-51.2 -114.3,-114.3 0,-63.1 51.2,-114.3 114.3,-114.3 63.1,0 114.3,51.2 114.3,114.3 0,4.2 -0.2,8.3 -0.7,12.3 17.6,-5.8 36.4,-8.9 55.9,-8.9 19.2,0 37.8,3.1 55.2,8.7 -0.4,-4 -0.6,-8 -0.6,-12.1 0,-63.1 51.2,-114.3 114.3,-114.3 63.1,0 114.3,51.2 114.3,114.3 C 658.4,205.8 607.3,257 544.2,257 Z"
   id="path12" />
			<path
   d="M 251.2,333.3 H 290 c -0.6,4.9 -1.3,10.5 -2.1,16.7 -3.6,28.7 -5.5,43.8 -5.6,45.3 L 243.4,393 c 0.6,-2.6 2.6,-18 6.1,-46.1 0.6,-4.9 1.1,-9.4 1.7,-13.6 z m 315.1,-31.2 -26.9,2.5 c 0.2,1.3 0.9,9.3 2.2,24.1 l -30.5,2.6 c -0.4,-4.2 -0.7,-8.3 -1,-12.3 -0.8,-8.3 -1.2,-12.4 -1.3,-12.2 l -27.6,2.5 c 1.8,20.2 4.4,48.7 7.6,85.4 L 518,392 c -0.2,-1.5 -1,-11.3 -2.5,-29.5 l 26.9,-2.5 c 1.3,14.4 2.2,24.3 2.8,29.5 l 29.1,-2.6 c -2.7,-28.3 -5.3,-56.6 -8,-84.8 z m -340.1,48.6 c 3.4,4.7 4.9,11 4.5,18.7 -0.9,4.9 -2.9,9.2 -6,12.8 -7.5,8.4 -19.9,12.6 -37.3,12.6 -8.1,0 -17.3,-1 -27.5,-2.9 0.1,-0.5 1.1,-15.1 3.1,-43.9 2,-28.8 2.9,-43.3 2.8,-43.4 10.3,-1.6 21.2,-2.4 32.7,-2.3 11.6,0.2 20.1,2.3 25.6,6.2 4.3,3.1 6.2,7 6,11.8 -0.4,3.5 -1.2,6.6 -2.3,9.3 -2.7,6.7 -7.1,11.1 -13.1,13.4 4.9,1.2 8.7,3.8 11.5,7.7 z m -34.8,6.4 c -1.7,0 -3.6,0.2 -5.7,0.6 l -1.3,17.3 c 0.9,0 2.1,0 3.7,0.1 1.6,0.1 2.7,0.1 3.4,0.1 3.2,0 5.5,-0.6 7,-1.9 1.5,-1.2 2.3,-3.8 2.5,-7.6 0.4,-5.7 -2.9,-8.6 -9.6,-8.6 z m 11.2,-31.3 c -0.2,-3.4 -2.7,-5.1 -7.4,-5.1 0.3,0 -2,0.3 -6.7,0.7 l -1,13.8 c 1.1,0.1 2.1,0.1 3.1,0.1 3.9,0 6.9,-1 9,-2.9 2,-1.8 3,-4.1 3,-6.6 z m 265.7,-22.9 c -36.7,5.6 -59.4,9.1 -68.1,10.3 l 3.6,23 22.6,-3.4 9.8,62.6 22,-3.4 -9.6,-63 23.2,-3.7 z m -84.6,18.6 c 4.3,4.2 6.5,8.7 6.5,13.7 0,1.6 -0.2,3.3 -0.7,4.9 -1.1,3.8 -3.1,7 -6,9.7 -1.6,1.7 -3.9,3.4 -6.8,4.9 -2.1,1.3 -3.1,2.1 -3.1,2.5 0.2,1.1 3.3,13.2 9.3,36.3 l -29.1,0.6 c 0,-0.2 -0.8,-4.8 -2.3,-13.9 -1.5,-9.1 -2.4,-13.7 -2.7,-13.7 -1.9,-0.5 -3.9,-0.9 -5.8,-1.3 -1.9,-0.4 -3.8,-0.8 -5.7,-1.2 l -0.4,-0.3 c 0,0.1 -1,4.3 -3.1,12.7 -2,8.4 -3.1,12.7 -3.1,13 L 304,383.7 c 0.6,-1.2 3.9,-14.9 9.9,-41.3 6,-26.1 9.1,-39.7 9.2,-40.8 7.5,1.6 14.9,3.1 22.4,4.6 9.6,2 16.4,3.8 20.5,5.2 7.5,2.7 13.3,6 17.7,10.1 z m -24.2,12.8 c 0,-4.4 -4.6,-7.6 -13.9,-9.7 -1.7,7.8 -2.8,12 -3.1,12.5 v 1.7 c 3,0.8 6,1.2 8.9,1.2 4.6,0 7.3,-1.2 7.8,-3.5 0.2,-0.8 0.3,-1.5 0.3,-2.2 z M 252.2,322.9 h 38.9 c 1.6,-12 2.4,-18.4 2.6,-19.1 l -39.1,-2.3 c 0,1.2 -0.8,8.4 -2.4,21.4 z"
   id="path14" />
			<path
   d="m 326.8,416.5 c -8.6,-1.8 -23.1,-3.6 -43.3,-5.2 0.1,0.7 -2.2,31.4 -7,92.1 3.4,0.3 6.8,0.4 10.3,0.4 20.3,0 37.8,-3.9 52.4,-11.6 17.4,-9.2 26.8,-22.3 28.2,-39.2 0.6,-7 -1.5,-13.3 -6.1,-19 -6.6,-8.2 -18.1,-14 -34.5,-17.5 z m 1.7,40.1 c -0.6,4.5 -2.8,8 -6.8,10.7 -3.9,2.7 -8.8,3.8 -14.6,3.3 l 2.3,-29.2 c 13.9,1.1 20.3,6.2 19.1,15.2 z m 101.9,-45.1 h -1 c -8.5,14 -17,27.9 -25.6,41.9 -16.8,27.6 -25.3,42.1 -25.6,43.5 l 25.5,7.1 c 0.3,-0.4 1.9,-3.1 4.8,-8.1 2.9,-5 4.7,-8.1 5.3,-9.3 h 34.8 c 0.5,0.8 2.7,3.9 6.7,9.5 1.8,2.6 3.7,5.2 5.7,7.9 l 22.6,-6.8 c -0.7,-1.4 -9.4,-15.6 -26.3,-42.7 -16.9,-27.1 -25.9,-41.4 -26.9,-43 z m -9.6,56.3 c 0,-0.1 1.7,-3.2 5,-9.2 3.3,-6.1 5,-9.1 5,-9.2 3.7,6.3 7.4,12.5 11.1,18.5 h -21.1 z m 164.6,-29.3 c -0.6,0.4 -7.8,7.1 -21.5,20.2 -13.8,13.1 -20.6,19.7 -20.6,20 -2.4,15.4 -3.7,23.8 -3.8,25.4 L 511,500 c 0.5,-3.3 1.6,-11.3 3.3,-24.1 0.1,-0.9 -4.1,-9.2 -12.5,-25.1 -8.4,-15.6 -12.9,-23.6 -13.4,-24 l 23.1,-15.3 c 0.2,0.5 7.3,13.4 21.2,38.6 0.3,-0.9 5.5,-6.1 15.5,-15.8 10.1,-9.7 15.6,-14.8 16.7,-15.3 z"
   id="path16" />
			<path
   class="st0"
   d="m 456.8,550 c -1.5,0 -2.6,0.9 -3.2,2 -6.1,16.2 -19.1,35.1 -29.6,47.2 0,-2 0.3,-4.1 0.3,-6.4 0.3,-10.7 0.9,-24.3 0.9,-36.5 0,-18.6 -4.1,-23.8 -14.5,-23.8 -3.8,0 -7.2,1.7 -7.5,3.5 l -2,9.6 c -4.9,21.7 -12.8,58 -23.5,58 -2.9,0 -4.3,-7.5 -4.3,-17.4 0,-5.2 0.6,-11 1.4,-16.8 0.3,-5.5 1.2,-9.9 1.2,-15.4 0,-9.3 -7.5,-11.9 -13.3,-11.9 -2.9,0 -5.8,1.2 -6.4,2.6 -0.7,4.6 -1.5,10.3 -2,16.5 -3.2,7.1 -8.5,13.3 -15.4,15.4 0.6,-4.1 0.6,-7.2 0.6,-12.2 0,-27 -15.4,-40.9 -29.3,-40.9 -10.4,0 -20,7.8 -20.9,22.9 -4.4,5.5 -6.5,13.2 -7.2,21.5 -5.6,12.5 -14.6,25.2 -26.7,31 4.1,-9.6 7.5,-25.8 7.5,-38.5 0,-15.4 -7.8,-27.2 -20.6,-27.2 -17.4,0 -31.3,34.5 -38,51.3 -0.3,-8.4 -0.3,-18 -0.3,-27.5 0,-13.6 0.3,-26.4 0.9,-35.7 18.3,-18 47,-60 47,-84.9 0,-12.5 -7.5,-18.6 -17.1,-18.6 -6.1,0 -13.3,3.2 -18.8,8.4 -27.2,26.1 -34.5,82.9 -34.5,130.7 0,28.1 0,46.7 14.2,46.7 4.9,0 9.3,-2.9 9.6,-3.5 v 0.3 c 3.5,-8.7 7.5,-19.1 10.1,-24.3 l 2,-3.8 c 5.5,-11.3 15.4,-31.3 21.2,-31.3 3.5,0 3.8,11.3 3.8,13.9 0,17.1 -5.5,38 -10.7,48.7 -12.5,1.2 -27,6.1 -27,16.2 0,6.1 5.8,11.3 14.8,11.3 15.1,0 25.8,-12.2 31.3,-23.2 14.2,-4.4 24.4,-14.2 31.5,-25.6 2.2,18.8 12.4,32.8 28.2,32.8 14.5,0 24.1,-13.3 27.2,-31.6 7,-1.2 12.1,-4.4 15.9,-8.8 0.1,20.8 7.3,35.7 21.4,35.7 15.4,0 24.3,-29 29.3,-50.7 0,19.1 -0.3,38.5 -1.4,57.7 -17.1,16.2 -45.8,58.8 -45.8,83.2 0,13.3 9.3,20.9 20,20.9 33.6,0 44.6,-77.4 46.7,-112.2 14.2,-15.1 29,-35.7 36.5,-54.5 0.5,-2.5 -1.5,-4.8 -3.5,-4.8 z M 238.5,426.2 c 4.1,0 7.2,3.2 7.2,10.1 0,20 -24.3,58.6 -40,75.1 3.3,-27.8 12.3,-85.2 32.8,-85.2 z m -24.9,196 c -1.7,0 -2.6,-1.2 -2.6,-2.3 0,-5.2 8.7,-8.7 16.8,-9.6 -3.2,4.3 -9.3,11.9 -14.2,11.9 z m 109.3,-19.4 c -2.9,3.2 -5.8,4.9 -9,4.9 -8.7,0 -14.2,-16.5 -14.2,-29.9 0,-2.9 0.3,-6.7 0.9,-9.6 7,9.9 18.3,15.1 30.4,15.7 -1.7,7.5 -4.6,14.2 -8.1,18.9 z m 9.3,-25.3 c -11.6,-0.3 -23.8,-7.2 -28.4,-18 1.2,-2 3.5,-3.8 5.8,-6.7 2.3,-2.9 4.6,-5.5 4.6,-7 0,-3.5 -3.5,-7.8 -7,-7.8 -1.4,0 -6.7,1.7 -9.6,3.2 0.9,-7.5 5.8,-11.3 12.5,-11.3 10.7,0 22.9,11 22.9,33.6 0,4.5 -0.3,10.3 -0.8,14 z m 38.8,136 c -4.1,0 -7.5,-3.8 -7.5,-11.3 0,-21.2 23.2,-58 38.6,-74.2 -3.3,30.4 -12.6,85.5 -31.1,85.5 z"
   id="path18"
   style="filter:url(#filter82)" />
		<path
   style="fill:#ffffff;stroke-width:1.21359"
   d="m 540.04854,278.35101 c -12.31191,-3.76196 -42.92245,-10.59548 -61.35633,-13.69724 -86.69637,-14.58786 -177.54693,-10.57214 -260.69583,11.52312 -7.58984,2.01686 -14.02363,3.44311 -14.29731,3.16943 -0.44448,-0.44448 4.11611,-15.53785 6.13371,-20.29967 0.67183,-1.58558 -1.32216,-2.08856 -12.89281,-3.25211 C 141.30085,250.19941 99.015515,208.96058 92.926683,154.35546 87.006758,101.26511 120.69998,50.404104 172.55866,34.148422 c 28.18961,-8.836348 56.27363,-6.44217 83.5093,7.119211 23.55011,11.726242 40.09884,28.41031 51.5896,52.011539 8.04529,16.524448 11.28585,30.216888 11.41569,48.235068 l 0.10146,14.08706 7.88835,-2.26291 c 28.49939,-8.17556 59.74016,-8.73353 89.59957,-1.60027 6.89506,1.64718 12.90235,2.99368 13.34952,2.9922 0.44717,-0.001 0.86891,-6.1453 0.93719,-13.65292 0.33886,-37.25955 19.11076,-71.761358 50.63641,-93.067218 21.12452,-14.276507 50.54072,-21.443122 75.22448,-18.326803 53.71265,6.78121 94.49441,48.057827 100.27153,101.488251 3.10323,28.70052 -4.74467,56.20552 -22.91857,80.3241 -19.52936,25.91741 -49.40665,41.93446 -83.36132,44.68952 -5.58062,0.45281 -10.14658,1.07723 -10.14658,1.38758 0,0.31036 1.6534,5.49934 3.67421,11.53107 2.02082,6.03173 3.52264,11.08046 3.33738,11.2194 -0.18525,0.13895 -3.61353,-0.74859 -7.61838,-1.97229 z"
   id="path44" /><path
   style="fill:#ffffff;stroke-width:1.21359"
   d="m 352.05564,380.08326 -2.20213,-14.04152 -5.99377,-1.28543 c -3.29657,-0.70699 -6.4099,-1.28544 -6.9185,-1.28544 -0.5086,0 -2.17971,5.65403 -3.71358,12.5645 l -2.78884,12.56449 -12.30679,-2.56399 c -10.72189,-2.23379 -12.29077,-2.87507 -12.18237,-4.97954 0.14775,-2.86867 17.35177,-77.33511 18.0215,-78.00483 0.64533,-0.64534 18.50804,2.97318 31.89786,6.46166 22.86944,5.95823 33.46815,14.32625 33.30299,26.29377 -0.084,6.08935 -3.96611,12.22469 -10.64075,16.81696 -2.94341,2.02512 -5.35165,4.19918 -5.35165,4.83125 0,0.63207 1.9532,8.57375 4.34045,17.64818 2.38724,9.07443 4.15408,16.68532 3.9263,16.9131 -0.22778,0.22778 -6.43839,0.79534 -13.80137,1.26125 l -13.38722,0.8471 z m 6.49996,-41.41764 c 4.00062,-4.82045 -1.86418,-12.83974 -9.67177,-13.22478 -3.88683,-0.19168 -4.07238,0.0152 -5.70685,6.36217 -2.02962,7.88144 -1.41757,8.56378 7.70598,8.59103 3.95401,0.0118 6.75137,-0.61836 7.67264,-1.72842 z"
   id="path46" /><path
   style="fill:#ffffff;stroke-width:1.21359"
   d="m 261.58725,393.5923 c -8.97895,-0.59467 -16.52766,-1.28352 -16.77491,-1.53077 -0.40455,-0.40455 4.84547,-44.11036 6.45927,-53.7727 l 0.65876,-3.94417 h 18.85212 18.85211 l -0.66102,3.33738 c -0.36357,1.83556 -2.14011,15.48847 -3.94787,30.3398 -2.75199,22.60846 -3.59815,26.97389 -5.19996,26.82706 -1.05222,-0.0965 -9.25954,-0.66193 -18.2385,-1.2566 z"
   id="path48" /><path
   style="fill:#ffffff;stroke-width:1.21359"
   d="m 253.62907,315.23058 c 0.42335,-3.83798 1.02155,-8.34344 1.32932,-10.01213 l 0.55958,-3.03398 12.41092,0.78159 c 6.826,0.42987 15.32142,0.83946 18.8787,0.91019 6.37545,0.12677 6.45886,0.17625 5.84264,3.46598 -0.34383,1.83556 -0.9668,5.93144 -1.38438,9.10194 l -0.75923,5.76457 h -18.82365 -18.82364 z"
   id="path50" /><path
   style="fill:#ffffff;stroke-width:1.21359"
   d="m 167.6605,392.53798 c -3.23576,-0.54297 -6.13707,-1.24109 -6.44737,-1.55138 -0.58145,-0.58145 4.24783,-78.2022 5.16299,-82.98441 0.70093,-3.66276 5.74586,-4.53016 26.58505,-4.57091 13.21771,-0.0258 18.36149,0.44555 23.16567,2.12301 6.60979,2.3079 11.88198,7.01034 12.98643,11.58299 1.64834,6.82452 -6.27966,21.91199 -12.5618,23.90586 -2.75279,0.8737 -3.16039,3.01026 -0.57428,3.01026 3.1823,0 10.15063,7.26482 12.25588,12.77736 5.92315,15.50953 -3.53136,30.1169 -22.8156,35.25049 -6.92447,1.84334 -27.97608,2.09799 -37.75697,0.45673 z m 31.13571,-18.69202 c 2.4764,-2.4764 3.64049,-9.83658 2.03132,-12.84335 -2.10753,-3.93796 -10.44454,-6.22422 -14.13515,-3.87628 -0.77793,0.49491 -1.8042,4.85548 -2.2806,9.69015 l -0.86617,8.79032 h 6.74488 c 4.27595,0 7.38943,-0.64455 8.50572,-1.76084 z m 1.2693,-41.26374 c 6.77196,-6.27604 2.01762,-13.83753 -7.67122,-12.20062 L 187.5,321.20849 v 7.17488 7.17488 h 4.67716 c 3.28263,0 5.63459,-0.88732 7.88835,-2.97603 z"
   id="path52" /><path
   style="fill:#ffffff;stroke-width:1.21359"
   d="m 432.07037,364.42133 c -2.57562,-16.87591 -5.00166,-31.04824 -5.39122,-31.49407 -0.38955,-0.44583 -5.34579,-0.0591 -11.01387,0.85945 -5.66808,0.91854 -10.63162,1.28331 -11.03009,0.81061 -0.91342,-1.08357 -3.73917,-19.87846 -3.08675,-20.53088 0.80421,-0.8042 65.22284,-10.32105 65.82002,-9.72387 0.30533,0.30533 1.25832,4.97419 2.11775,10.37524 l 1.5626,9.82009 -3.12149,0.62602 c -1.71682,0.3443 -6.80778,1.24159 -11.31324,1.99397 -4.52578,0.75578 -8.20264,1.9911 -8.21608,2.76038 -0.0134,0.76583 1.97682,14.69133 4.42268,30.94558 3.50838,23.31541 4.12253,29.7537 2.90972,30.50326 -0.8455,0.52255 -4.78399,1.31741 -8.75219,1.76636 -3.96821,0.44895 -7.89216,1.07616 -8.71991,1.3938 -1.10261,0.42311 -2.75706,-7.62623 -6.18793,-30.10594 z"
   id="path54" /><path
   style="fill:#ffffff;stroke-width:1.21359"
   d="m 489.211,391.21537 c -0.65876,-3.21285 -6.84195,-74.20222 -6.82131,-78.31555 0.0151,-3.01345 1.58944,-3.47114 16.09173,-4.67825 7.30387,-0.60794 9.52093,-0.42089 9.9285,0.83766 0.28862,0.89121 0.88916,6.45512 1.33453,12.36424 l 0.80978,10.74385 6.25201,-0.69013 c 3.43861,-0.37958 10.52338,-1.04972 15.74393,-1.48921 l 9.49192,-0.79908 -0.84039,-11.85372 -0.84039,-11.85371 4.69799,-0.67812 c 2.58389,-0.37297 8.38427,-1.02173 12.88973,-1.4417 7.98395,-0.74421 8.19223,-0.69186 8.21064,2.0636 0.0104,1.55495 1.64461,19.75679 3.63161,40.44854 1.987,20.69174 3.61685,38.24038 3.62189,38.99697 0.005,0.81403 -3.33505,1.69281 -8.18259,2.15262 -4.50546,0.42735 -10.7112,1.07808 -13.79052,1.44605 l -5.59878,0.66904 -0.8237,-8.88962 c -0.45304,-4.8893 -1.15195,-11.54276 -1.55314,-14.78548 l -0.72944,-5.89586 -11.65876,0.81609 c -17.47373,1.22313 -16.28131,0.19661 -15.35551,13.21908 0.43426,6.10833 1.06528,12.55234 1.40228,14.32002 0.67707,3.55153 0.92782,3.48113 -19.18972,5.38762 -7.85062,0.74398 -8.1552,0.67082 -8.72229,-2.09495 z"
   id="path56" /><path
   style="fill:#ffffff;stroke-width:1.21359"
   d="m 522.65463,501.1765 c -5.5618,-0.86857 -10.28054,-1.76166 -10.4861,-1.98465 -0.20556,-0.22299 0.37795,-5.59355 1.2967,-11.93457 l 1.67044,-11.52912 -5.9982,-12.13593 c -3.29901,-6.67475 -9.02465,-17.57066 -12.72364,-24.21313 -3.69899,-6.64246 -6.31673,-12.43876 -5.8172,-12.88065 0.49952,-0.44189 5.22881,-3.68463 10.50951,-7.20608 11.31362,-7.5445 8.85538,-9.19949 22.00095,14.81199 l 9.27465,16.94091 15.54968,-15.26778 c 8.55233,-8.39728 15.93248,-15.26778 16.40034,-15.26778 0.46787,0 5.10662,3.95934 10.30834,8.79854 l 9.45767,8.79855 -21.02094,20.63106 -21.02094,20.63107 -1.46325,11.83253 c -1.68876,13.65622 -0.0832,12.76337 -17.93801,9.97504 z"
   id="path58" /><path
   style="fill:#ffffff;stroke-width:1.21359"
   d="m 390.45713,499.73093 -11.24191,-3.11129 4.08697,-7.41176 c 2.24783,-4.07647 13.66149,-23.12748 25.36369,-42.33558 l 21.27672,-34.92381 23.56188,37.95779 c 12.95903,20.87679 24.7829,39.9665 26.27525,42.42157 l 2.71336,4.46378 -10.23272,3.12118 c -5.62801,1.71664 -10.47422,3.12117 -10.76937,3.12117 -0.29514,0 -3.17241,-3.82281 -6.39391,-8.49515 l -5.85729,-8.49514 h -17.95229 -17.95229 l -4.96143,8.49514 c -2.72879,4.67234 -5.34693,8.452 -5.8181,8.39927 -0.47116,-0.0528 -5.91552,-1.49597 -12.09856,-3.20717 z m 51.89724,-31.48106 c 0,-0.95794 -10.98156,-19.82754 -11.53905,-19.82754 -0.63874,0 -10.30561,18.30138 -10.30561,19.51066 0,0.61622 4.91505,1.12041 10.92233,1.12041 6.00728,0 10.92233,-0.36159 10.92233,-0.80353 z"
   id="path60" /><path
   style="fill:#ffffff;stroke-width:1.21359"
   d="m 277.3829,500.47779 c 0.0424,-1.59774 1.56822,-22.01905 3.39072,-45.3807 l 3.31364,-42.47573 7.83501,0.3278 c 13.54864,0.56686 35.0242,3.92251 44.73436,6.98995 11.80147,3.72808 21.38247,10.3519 26.1651,18.08923 3.17331,5.13378 3.67393,7.08566 3.61669,14.1013 -0.13217,16.19877 -11.18545,31.11787 -29.90887,40.36928 -13.07909,6.46251 -25.63967,9.38956 -43.75042,10.19538 l -15.4733,0.68846 z m 42.00065,-31.34935 c 5.92527,-2.69027 8.86788,-6.65984 9.73628,-13.13421 0.50576,-3.77073 0.0369,-5.35486 -2.46459,-8.32776 -2.968,-3.52727 -9.90021,-6.52569 -15.08708,-6.52569 -2.63271,0 -2.50792,-0.5946 -4.64803,22.14805 l -0.77085,8.19175 4.08555,-0.0266 c 2.24706,-0.0147 6.36398,-1.06113 9.14872,-2.32549 z"
   id="path62" /><path
   style="fill:#ffffff;fill-opacity:0;stroke-width:1.21359"
   d="m 354.56203,391.00014 c -0.35018,-1.45784 -1.30246,-7.29262 -2.11618,-12.96616 -0.81371,-5.67354 -2.11217,-11.01164 -2.88545,-11.86245 -0.77328,-0.8508 -4.14979,-1.87188 -7.50337,-2.26906 l -6.09741,-0.72214 -1.95303,7.12342 c -1.07416,3.91789 -2.31861,9.1774 -2.76544,11.68781 -0.44683,2.51041 -1.19069,4.79816 -1.65302,5.08389 -1.22119,0.75474 -20.64501,-3.61776 -21.97376,-4.94652 -1.05029,-1.05029 3.64382,-23.71226 13.04007,-62.95417 l 3.48705,-14.56311 5.43352,0.26668 c 8.9888,0.44117 33.91527,7.2932 43.24241,11.88689 9.52419,4.69074 12.97744,8.17231 15.08586,15.2096 1.19045,3.97336 1.02053,5.31142 -1.2772,10.05791 -1.51877,3.13737 -4.939,7.19863 -8.01087,9.51231 -3.57744,2.69448 -5.37303,4.96939 -5.39807,6.83905 -0.0206,1.54087 1.60082,9.29108 3.60325,17.22271 2.00243,7.93162 3.64078,14.70138 3.64078,15.04392 0,0.82452 -5.92372,1.68568 -16.5754,2.40962 -8.16378,0.55486 -8.7254,0.43076 -9.32374,-2.0602 z m 5.05146,-55.27128 c 0.49257,-5.14661 -3.32171,-9.52247 -9.2737,-10.63907 -3.26496,-0.61251 -4.60367,-0.31013 -5.78611,1.30695 -1.89419,2.59046 -3.41873,11.02559 -2.3154,12.81082 0.48748,0.78876 4.03272,1.16917 8.89769,0.95473 l 8.08733,-0.35646 z"
   id="path30" /></g>

</svg>
